<?xml version="1.0" encoding="UTF-8"?>
<svg version="1.1" xmlns="http://www.w3.org/2000/svg" width="1000" height="1000">
<path d="M0 0 C1.21050522 -0.00701431 2.42101044 -0.01402863 3.66819763 -0.02125549 C7.55097214 -0.038657 11.43359419 -0.04510728 15.31640625 -0.046875 C15.97768776 -0.04731686 16.63896927 -0.04775871 17.32028961 -0.04821396 C37.00835023 -0.05511446 56.38383698 0.17732169 75.87890625 3.203125 C77.65539551 3.46851074 77.65539551 3.46851074 79.46777344 3.73925781 C160.27520668 16.03557945 236.34531678 49.20148673 298.328125 102.87890625 C299.82479704 104.15692091 301.35144988 105.3995667 302.87890625 106.640625 C311.47764197 113.6698567 319.3289565 121.43650764 327.19140625 129.265625 C327.75121185 129.82025421 328.31101746 130.37488342 328.88778687 130.94631958 C335.28849334 137.30035265 341.34025931 143.74184529 346.96801758 150.80639648 C348.98308054 153.3337854 351.08457615 155.76022121 353.22485352 158.1809082 C413.98012771 227.11796636 447.89197136 321.88775364 452.11328125 461.546875 C446.08149568 555.64272992 411.11170499 646.16478577 349.203125 717.65234375 C347.92511034 719.14901579 346.68246455 720.67566863 345.44140625 722.203125 C338.41217455 730.80186072 330.64552361 738.65317525 322.81640625 746.515625 C322.26177704 747.0754306 321.70714783 747.63523621 321.13571167 748.21200562 C314.7816786 754.61271209 308.34018596 760.66447806 301.27563477 766.29223633 C298.74824585 768.30729929 296.32181004 770.4087949 293.90112305 772.54907227 C224.96406489 833.30434646 130.19427761 867.21619011 -9.46484375 871.4375 C-103.56069867 865.40571443 -194.08275452 830.43592374 -265.5703125 768.52734375 C-267.06698454 767.24932909 -268.59363738 766.0066833 -270.12109375 764.765625 C-278.71982947 757.7363933 -286.571144 749.96974236 -294.43359375 742.140625 C-294.99339935 741.58599579 -295.55320496 741.03136658 -296.12997437 740.45993042 C-302.53068084 734.10589735 -308.58244681 727.66440471 -314.21020508 720.59985352 C-316.22526804 718.0724646 -318.32676365 715.64602879 -320.46704102 713.2253418 C-379.80678308 645.89444248 -417.78445218 548.71360705 -419.32421875 452.08203125 C-419.33123306 450.87152603 -419.33824738 449.66102081 -419.34547424 448.41383362 C-419.36287575 444.53105911 -419.36932603 440.64843706 -419.37109375 436.765625 C-419.37153561 436.10434349 -419.37197746 435.44306198 -419.37243271 434.76174164 C-419.37933321 415.07368102 -419.14689706 395.69819427 -416.12109375 376.203125 C-415.94416992 375.01879883 -415.76724609 373.83447266 -415.58496094 372.61425781 C-403.2886393 291.80682457 -370.12273202 215.73671447 -316.4453125 153.75390625 C-315.16729784 152.25723421 -313.92465205 150.73058137 -312.68359375 149.203125 C-305.65436205 140.60438928 -297.88771111 132.75307475 -290.05859375 124.890625 C-289.50396454 124.3308194 -288.94933533 123.77101379 -288.37789917 123.19424438 C-282.0238661 116.79353791 -275.58237346 110.74177194 -268.51782227 105.11401367 C-265.99043335 103.09895071 -263.56399754 100.9974551 -261.14331055 98.85717773 C-193.81241123 39.51743567 -96.6315758 1.53976657 0 0 Z " fill="#000000" transform="translate(477.12109375,59.796875)"/>
<path d="M0 0 C4.78400467 3.35201401 4.78400467 3.35201401 6 7 C6.06802967 8.72795352 6.08495645 10.45835365 6.0625 12.1875 C6.05347656 13.08855469 6.04445313 13.98960937 6.03515625 14.91796875 C6.01775391 15.94857422 6.01775391 15.94857422 6 17 C6.75619629 17.07516846 7.51239258 17.15033691 8.29150391 17.2277832 C11.73735686 17.57722851 15.18106166 17.94468299 18.625 18.3125 C19.81480469 18.43044922 21.00460937 18.54839844 22.23046875 18.66992188 C23.38417969 18.79560547 24.53789063 18.92128906 25.7265625 19.05078125 C26.78439941 19.16075439 27.84223633 19.27072754 28.93212891 19.3840332 C32.34068652 20.068403 34.96804673 21.32507431 38 23 C38 23.66 38 24.32 38 25 C39.19238281 24.43410156 40.38476562 23.86820312 41.61328125 23.28515625 C43.17964531 22.54418164 44.74605388 21.80330112 46.3125 21.0625 C47.09818359 20.68931641 47.88386719 20.31613281 48.69335938 19.93164062 C49.8293457 19.39506836 49.8293457 19.39506836 50.98828125 18.84765625 C51.68477783 18.51773682 52.38127441 18.18781738 53.09887695 17.84790039 C58.0489229 15.64018117 62.66183457 15.05750492 68 16 C73.86443226 19.23659843 76.75469341 24.08867557 79.7578125 29.859375 C83.44848303 36.21939843 88.26561824 38.30199492 95.1875 40.3125 C97.45345691 40.89433292 99.72385807 41.45938164 102 42 C102.59901123 42.17998535 103.19802246 42.3599707 103.81518555 42.54541016 C106.63950709 43.13306092 109.2797173 43.07294523 112.1640625 43.03515625 C113.36933594 43.04095703 114.57460938 43.04675781 115.81640625 43.05273438 C118.33210925 43.0591849 120.84803991 43.03885712 123.36328125 42.99023438 C131.42618374 43.08877144 135.9259255 44.40378178 141.92724609 49.87402344 C152.58769183 60.80820029 152.58769183 60.80820029 153.375 68.8125 C153.28578647 73.49621008 151.35744356 77.04286259 149 81 C148.34 81 147.68 81 147 81 C146.67 84.3 146.34 87.6 146 91 C150.01868503 91.95045768 153.7936298 92.13757511 157.91796875 92.17578125 C159.26889553 92.19899476 160.61980701 92.2231127 161.97070312 92.24804688 C164.07244927 92.28295798 166.1736356 92.31241085 168.27563477 92.32592773 C180.98105815 92.42332749 191.02600567 94.77654345 201 103 C206.11784477 108.71162786 206.28486957 114.62542771 206.22265625 121.984375 C205.9741323 125.3503485 205.2085999 127.81139594 203.8671875 130.87109375 C201.13141742 137.58728607 199.50597529 144.75430419 200 152 C206.93774083 151.00593424 206.93774083 151.00593424 213.0625 147.8125 C216.64565058 145.60161986 218.39597339 145.59164781 222.4609375 146.2578125 C226.51262834 147.4421529 230.08959254 149.39654249 233.80078125 151.3828125 C238.09961563 153.55584966 242.54764072 155.13932427 247.08984375 156.7265625 C250.27251373 158.11924762 252.53089493 159.55363071 255 162 C255 163.32 255 164.64 255 166 C255.66 166 256.32 166 257 166 C263.74403816 188.03855326 263.74403816 188.03855326 259.5 196.75 C258.7575 197.86375 258.7575 197.86375 258 199 C257.34 199 256.68 199 256 199 C255.67 201.31 255.34 203.62 255 206 C258.11375556 207.03791852 260.29836225 207.13351144 263.5625 207.125 C265.17705078 207.12886719 265.17705078 207.12886719 266.82421875 207.1328125 C269.65432953 207.01445608 272.11577108 206.5765553 274.875 206 C283.45149213 204.99018722 292.05616291 212.48269099 298.625 217.25 C299.75912478 218.15535283 300.88563724 219.07043106 302 220 C302.825 220.66 303.65 221.32 304.5 222 C306.54093487 224.7212465 306.30111176 226.68777064 306 230 C308.97 229.01 308.97 229.01 312 228 C312 227.34 312 226.68 312 226 C314.1875 223.8125 314.1875 223.8125 317 222 C321.02328441 222.357176 324.01603723 223.90793113 327.5 225.875 C328.4178125 226.38804687 329.335625 226.90109375 330.28125 227.4296875 C331.1784375 227.94789063 332.075625 228.46609375 333 229 C333.92683594 229.4021875 334.85367188 229.804375 335.80859375 230.21875 C338 232 338 232 338.62890625 235.4140625 C338.63902483 236.81784639 338.61469029 238.22215012 338.5625 239.625 C338.53978027 240.74213379 338.53978027 240.74213379 338.51660156 241.88183594 C338.29927725 247.45515301 337.48026926 252.81486959 336.25 258.25 C336.09345947 258.95205566 335.93691895 259.65411133 335.77563477 260.37744141 C334.65018563 264.81997542 333.02960949 267.60839673 330 271 C328.57284358 272.92978632 327.15613662 274.86734435 325.75 276.8125 C325.04359375 277.78832031 324.3371875 278.76414062 323.609375 279.76953125 C323.07828125 280.50558594 322.5471875 281.24164062 322 282 C320.26969709 281.71515154 318.54079286 281.42180062 316.8125 281.125 C315.36810547 280.88136719 315.36810547 280.88136719 313.89453125 280.6328125 C311 280 311 280 308.65205383 278.97563171 C305.79623257 277.92503849 303.70438231 277.75233945 300.67260742 277.75708008 C299.62928757 277.75400345 298.58596771 277.75092682 297.5110321 277.74775696 C295.82527824 277.75853523 295.82527824 277.75853523 294.10546875 277.76953125 C292.33699333 277.77021858 292.33699333 277.77021858 290.53279114 277.7709198 C288.02697753 277.77394225 285.5211658 277.78182829 283.01538086 277.79418945 C279.26734375 277.81211807 275.51955932 277.8147011 271.77148438 277.81445312 C260.05797642 277.83060828 248.35111018 277.9648685 236.64453125 278.3828125 C235.67533249 278.41240555 234.70613373 278.4419986 233.70756531 278.4724884 C228.30504442 278.69622139 223.65229138 279.41611819 218.5 281.0625 C210.35327345 283.42076295 202.28661706 283.38833995 193.875 283.375 C192.85587524 283.37731125 192.85587524 283.37731125 191.81616211 283.37966919 C166.95625392 283.37328831 144.56877037 276.82763411 122 267 C122.04640625 267.825 122.0928125 268.65 122.140625 269.5 C122.52101865 281.67259668 120.69866232 294.55796756 114 305 C112.09082499 306.99282443 110.2896634 308.40719068 108 310 C107.34 310 106.68 310 106 310 C106 310.66 106 311.32 106 312 C105.01257813 312.55429687 104.02515625 313.10859375 103.0078125 313.6796875 C101.71344465 314.41128672 100.41917913 315.14306699 99.125 315.875 C98.47402344 316.23980469 97.82304688 316.60460937 97.15234375 316.98046875 C94.49606646 318.48660536 92.16980999 319.83019001 90 322 C88.01450125 322.70868834 86.01096536 323.36717873 84 324 C81.45465595 324.94975524 78.91356328 325.90756254 76.375 326.875 C70.46960732 329.11225233 64.53184714 331.17820288 58.52734375 333.13671875 C56.48515985 333.83428079 54.48354562 334.64990902 52.5 335.5 C49.39427556 336.83102476 46.33613839 337.89812649 43.125 338.9375 C38.50618562 340.44035543 34.12581718 342.17818229 29.7421875 344.265625 C28 345 28 345 26 345 C26 345.66 26 346.32 26 347 C24.69306167 348.35921586 23.35053546 349.68409365 22 351 C20.2762933 352.88516783 18.5987462 354.80168008 16.9375 356.7421875 C15.60884861 358.29049497 14.25295062 359.81571201 12.875 361.3203125 C7.38867748 367.59327685 5.33316129 372.84105289 4 381 C3.80132324 382.10359863 3.80132324 382.10359863 3.59863281 383.22949219 C1.12132306 397.01892199 -1.20245331 411.34202674 3 425 C3 426.32 3 427.64 3 429 C3.66 429 4.32 429 5 429 C5 430.32 5 431.64 5 433 C5.66 433 6.32 433 7 433 C7.82730494 435.92078237 8.15446067 438.59401226 8.24609375 441.625 C8.27896484 442.49640625 8.31183594 443.3678125 8.34570312 444.265625 C8.40689678 446.08841485 8.46418924 447.91133986 8.51757812 449.734375 C8.55173828 450.60578125 8.58589844 451.4771875 8.62109375 452.375 C8.6461499 453.16648437 8.67120605 453.95796875 8.69702148 454.7734375 C9.03268823 457.24022293 9.70730137 458.88117756 11 461 C13.88131576 462.94335553 16.19207998 463.25064736 19.625 463.1875 C20.40101563 463.18105469 21.17703125 463.17460938 21.9765625 463.16796875 C24.0687268 463.12050633 24.0687268 463.12050633 26 462 C30.70589079 461.17646911 33.06464885 462.530082 36.875 465.0625 C37.65617187 465.63097656 38.43734375 466.19945312 39.2421875 466.78515625 C42.43302376 468.19075126 44.30037418 467.76504783 47.67166138 467.2787323 C51.91326594 466.77095728 56.17031098 466.82182677 60.4375 466.7890625 C62.47657308 466.76352637 64.5156355 466.7371278 66.5546875 466.70996094 C67.60881836 466.69670776 68.66294922 466.68345459 69.74902344 466.6697998 C104.48182268 466.28921583 104.48182268 466.28921583 138 458 C139.08925781 457.61972656 140.17851563 457.23945312 141.30078125 456.84765625 C146.05216563 455.12462675 150.62848437 453.22835047 155.1171875 450.90625 C155.82423828 450.54055908 156.53128906 450.17486816 157.25976562 449.7980957 C158.63342039 449.07686353 159.99989722 448.34172867 161.35742188 447.59057617 C165.74078151 445.26540719 168.92185001 444.61290588 174 445 C173.45358063 448.73522495 172.14498349 450.10493159 169.1875 452.375 C155.93462424 462.18338824 139.89397023 466.42815537 124.375 471.25634766 C122.17357716 471.94565008 119.97671955 472.64747156 117.78125 473.35546875 C109.9847307 475.85830163 102.16674555 478.03402453 94.2109375 479.96875 C84.22568138 482.39746788 74.24809021 484.93573505 64.4375 488 C62.88675781 488.48146484 62.88675781 488.48146484 61.3046875 488.97265625 C58.95380836 489.70348511 56.60506386 490.44119588 54.2578125 491.18359375 C44.59468277 494.12394443 34.82452714 496.09145071 24.875 497.8125 C23.64918213 498.03156006 22.42336426 498.25062012 21.16040039 498.47631836 C12.05499516 499.9798465 3.19501204 500.24104588 -6 500 C-7.54182499 499.96570185 -9.08365459 499.9316098 -10.62548828 499.89770508 C-14.72927832 499.80196128 -18.83243674 499.68892242 -22.93566895 499.57192993 C-35.37123677 499.22311009 -47.80942389 498.89128769 -60.25 498.8125 C-61.20583984 498.79960938 -62.16167969 498.78671875 -63.14648438 498.7734375 C-64.01080078 498.77214844 -64.87511719 498.77085937 -65.765625 498.76953125 C-66.49555664 498.76542236 -67.22548828 498.76131348 -67.97753906 498.75708008 C-70.32649938 499.03921619 -71.90381054 499.9381339 -74 501 C-78.27500878 500.61402109 -82.22901477 499.41137264 -86.3125 498.125 C-87.45976562 497.76664063 -88.60703125 497.40828125 -89.7890625 497.0390625 C-92.27541233 496.23447728 -94.7293788 495.38414636 -97.1875 494.5 C-109.6655977 490.45244501 -120.61089776 488.80495454 -133.75 489.1875 C-146.11782318 489.47698961 -155.77883434 487.31777273 -167.26953125 482.98779297 C-172.02873507 481.26607099 -176.88652398 479.89341003 -181.75 478.5 C-182.7385498 478.21253906 -183.72709961 477.92507813 -184.74560547 477.62890625 C-192.26075376 475.45713625 -199.81304642 473.43898272 -207.375 471.4375 C-216.39903918 469.04605965 -225.26371955 466.40054546 -234.078125 463.328125 C-237.69825909 462.07187123 -241.36457398 461.06792689 -245.0625 460.0625 C-250.96521937 458.28718973 -255.72543276 455.48442972 -260 451 C-260 450.34 -260 449.68 -260 449 C-248.3801773 451.35809486 -236.79510994 453.88450228 -225.22525024 456.47583008 C-223.66981374 456.82273485 -222.11364469 457.16637265 -220.55673218 457.5065918 C-202.53509553 461.45186184 -202.53509553 461.45186184 -194.5625 466.5625 C-183.39948695 472.82467805 -169.52080849 473.34599228 -157.0625 473.25 C-155.78705322 473.24323242 -154.51160645 473.23646484 -153.19750977 473.22949219 C-127.12678751 472.94713187 -102.31818735 468.45707286 -78 459 C-76.00359361 458.32264783 -74.00495586 457.65161065 -72 457 C-72 456.34 -72 455.68 -72 455 C-71.34 455 -70.68 455 -70 455 C-67.13789094 445.82501208 -64.53327777 436.63344926 -63.0625 427.125 C-62.26851052 422.51854861 -60.71878578 419.83828581 -58 416 C-54.15241978 407.7478863 -54.15241978 407.7478863 -55 399 C-55.515625 398.0925 -56.03125 397.185 -56.5625 396.25 C-58.71816226 391.37632881 -59.09828754 385.8804145 -57.171875 380.828125 C-55.39266446 378.05255656 -52.74480039 376.75200025 -50 375 C-47.28066704 369.56133409 -48.59427451 361.54580258 -50.1875 355.875 C-51.70216575 351.37469504 -53.77006879 347.21037323 -56.01171875 343.03125 C-57 341 -57 341 -57 339 C-57.66 339 -58.32 339 -59 339 C-59 337.68 -59 336.36 -59 335 C-59.73009277 334.71060547 -60.46018555 334.42121094 -61.21240234 334.12304688 C-62.90790354 333.4399758 -64.59763732 332.74201968 -66.27587891 332.01757812 C-72.5402096 329.36086009 -78.71213471 327.80721825 -85.375 326.5 C-108.09824193 321.78255405 -108.09824193 321.78255405 -115 316 C-115.33 315.01 -115.66 314.02 -116 313 C-116.66 313 -117.32 313 -118 313 C-118.23074219 312.31035156 -118.46148437 311.62070312 -118.69921875 310.91015625 C-120.91368756 304.52933504 -123.56708724 298.80659965 -127 293 C-127.33 292.34 -127.66 291.68 -128 291 C-129.54155762 290.93268677 -129.54155762 290.93268677 -131.11425781 290.86401367 C-134.98403313 290.6917589 -138.85288762 290.5032909 -142.72167969 290.31030273 C-144.38553809 290.22948767 -146.04960685 290.15287572 -147.71386719 290.08081055 C-156.58579923 289.69379787 -164.91855766 289.23990429 -173.44824219 286.5168457 C-176.54508571 285.88959563 -178.9355129 286.32953856 -182 287 C-182 287.66 -182 288.32 -182 289 C-183.34007166 289.91689113 -184.69200203 290.81840032 -186.078125 291.6640625 C-188.09216595 292.98283902 -188.09216595 292.98283902 -189.921875 294.8984375 C-197.33089258 301.96590462 -205.20799496 303.09804457 -214.97753906 304.546875 C-218.21909523 305.03284659 -221.44791617 305.57790002 -224.6796875 306.125 C-247.14222782 309.79359975 -266.37391853 311.50778107 -287.71875 302.87646484 C-291.25097184 301.51937191 -294.83719732 300.50044801 -298.5 299.5625 C-299.6653125 299.25441406 -300.830625 298.94632813 -302.03125 298.62890625 C-312.53930915 296.59897137 -323.9827952 298.19895428 -334.59130859 298.95214844 C-336.28330623 299.06757861 -337.97608734 299.17203764 -339.66943359 299.265625 C-349.89723229 299.83416506 -357.61842493 300.56453688 -366 307 C-368.60065554 308.5119331 -371.24888422 309.78316033 -374 311 C-375.175625 311.52078125 -376.35125 312.0415625 -377.5625 312.578125 C-386.69532255 316.41422362 -393.99661876 317.84403529 -404 317 C-403.42693636 308.21631769 -400.98830962 299.99343933 -398.625 291.5625 C-398.22075035 290.09847388 -397.8171004 288.63428204 -397.4140625 287.16992188 C-396.64063418 284.36124768 -395.84834754 281.55890575 -395.04370117 278.7590332 C-394.41069518 276.47917515 -393.82420237 274.18476475 -393.32543945 271.87182617 C-391.92293119 265.741951 -391.92293119 265.741951 -389.33789062 263.66381836 C-387.23410949 262.61526957 -385.18270435 261.88071866 -382.9375 261.1875 C-381.39478958 260.63703103 -379.85311372 260.08365384 -378.3125 259.52734375 C-377.56871094 259.27065918 -376.82492187 259.01397461 -376.05859375 258.74951172 C-373.40462178 257.78322923 -370.93479104 256.56497981 -368.4375 255.25 C-364.38391426 253.14324789 -360.30870526 251.51602593 -356 250 C-356.15855469 249.4328125 -356.31710937 248.865625 -356.48046875 248.28125 C-357.33820038 244.51496974 -357.52820201 240.83122523 -357 237 C-355.12379387 234.49839182 -353.76108697 233.38054348 -351 232 C-350.69175065 226.20034557 -350.81917318 221.08697367 -352.5 215.5 C-356.59915021 200.46978256 -354.71449192 182.84172673 -347.91796875 168.91015625 C-346.68892741 166.35270428 -345.83330651 163.70824615 -345 161 C-344.34 161 -343.68 161 -343 161 C-342.9175 160.34 -342.835 159.68 -342.75 159 C-339.20954024 144.83816097 -325.6503226 128.37013468 -314 120 C-308.93898256 119.77506589 -305.68031668 122.29961727 -301.734375 125.13671875 C-299.50168204 127.53535511 -298.85729003 129.87264096 -298 133 C-297.3702124 133.06993164 -296.7404248 133.13986328 -296.09155273 133.21191406 C-293.2047584 133.54177281 -290.32138975 133.89567789 -287.4375 134.25 C-286.44685547 134.35957031 -285.45621094 134.46914063 -284.43554688 134.58203125 C-278.30243878 135.35631068 -274.14625553 136.56916298 -269 140 C-260.94391553 144.10127937 -254.02226235 143.25179837 -245.5 141.5 C-244.77296875 141.35691406 -244.0459375 141.21382812 -243.296875 141.06640625 C-241.52990929 140.71766302 -239.76474691 140.35980277 -238 140 C-237.87625 138.741875 -237.7525 137.48375 -237.625 136.1875 C-237.30131941 132.89674737 -236.93395001 131.90092502 -235 129 C-235.20549614 126.26005143 -235.3863389 124.60152656 -237.3828125 122.64453125 C-241.29887058 118.66225963 -243.78664396 112.99132306 -244.375 107.5 C-244 105 -244 105 -243 103 C-243.0553029 96.21156958 -244.89788739 90.85387311 -248.125 84.9375 C-250.60595993 79.44394587 -250.36204976 72.92057848 -250 67 C-249.67 66.34 -249.34 65.68 -249 65 C-248.34 65 -247.68 65 -247 65 C-246.76063721 64.24678467 -246.52127441 63.49356934 -246.2746582 62.7175293 C-244.79479422 59.56250804 -243.45377174 58.48002902 -240.60546875 56.51953125 C-239.73212891 55.91302734 -238.85878906 55.30652344 -237.95898438 54.68164062 C-237.04439453 54.06482422 -236.12980469 53.44800781 -235.1875 52.8125 C-233.83301758 51.86987305 -233.83301758 51.86987305 -232.45117188 50.90820312 C-228.3835279 48.11375264 -224.65354806 45.70745406 -220 44 C-220 43.34 -220 42.68 -220 42 C-219.0821875 41.49210937 -218.164375 40.98421875 -217.21875 40.4609375 C-215.9784442 39.76691457 -214.7389129 39.07150639 -213.5 38.375 C-212.85361572 38.01253174 -212.20723145 37.65006348 -211.54125977 37.27661133 C-208.08257516 35.30375782 -204.97017143 33.28786838 -201.9375 30.6875 C-197.00790209 26.77344158 -191.02991037 26.20302985 -185 25 C-178.72033415 23.42316761 -175.57385498 21.69421959 -171 17 C-166.9712035 15.48920131 -163.29410784 14.45737483 -159 15 C-157.12109375 16.8984375 -157.12109375 16.8984375 -155.4375 19.375 C-153.21451045 22.60937278 -151.68708166 24.53162175 -148 26 C-148 26.66 -148 27.32 -148 28 C-147.13375 28.433125 -147.13375 28.433125 -146.25 28.875 C-144.86295046 29.56852477 -143.48936716 30.29084133 -142.1418457 31.05834961 C-135.32929815 34.05344774 -125.49268872 31.75310909 -118.3125 30.9375 C-116.82266602 30.81084961 -116.82266602 30.81084961 -115.30273438 30.68164062 C-107.97486234 29.82956248 -104.61691803 27.65245809 -100 22 C-73.50823045 -3 -73.50823045 -3 -60 -3 C-60 -3.66 -60 -4.32 -60 -5 C-39.16126697 -11.20728218 -19.4116696 -10.6645381 0 0 Z " fill="#FDFDFD" transform="translate(527,233)"/>
<path d="M0 0 C1.216875 -0.01417969 2.43375 -0.02835937 3.6875 -0.04296875 C6.77741542 0.17201357 8.52587818 0.35774406 11 2.1875 C11.144375 3.1775 11.28875 4.1675 11.4375 5.1875 C11.623125 6.1775 11.80875 7.1675 12 8.1875 C22.24494645 13.35087713 34.74789933 14.85447192 46.03442383 16.14331055 C48.06674971 16.37548549 50.09676771 16.62290382 52.12695312 16.87304688 C59.75296224 17.79166583 67.30779782 18.42291554 74.99121094 18.59301758 C79.77596404 19.53839844 82.21025835 22.50658848 85.23046875 26.15625 C86.92024938 28.44291709 86.92024938 28.44291709 90 29.1875 C89.38466804 33.68284183 87.62062851 37.35931692 85.5 41.3125 C85.14905273 41.96976074 84.79810547 42.62702148 84.43652344 43.30419922 C80.97575588 49.57474414 76.72374676 54.80669072 72 60.1875 C71.319375 61.09242188 70.63875 61.99734375 69.9375 62.9296875 C68 65.1875 68 65.1875 64.75 66.1875 C61.07247869 66.1875 58.73051683 65.47625701 55.375 64.078125 C45.56322343 60.39870878 34.69158238 59.51371656 24.34741211 58.36523438 C16.89185744 57.4859173 9.34090551 56.41477034 3 52.1875 C3 51.5275 3 50.8675 3 50.1875 C2.113125 49.94 1.22625 49.6925 0.3125 49.4375 C-6.14519144 47.00063531 -9.20899156 43.30624927 -12 37.1875 C-11.6015625 34.46484375 -11.6015625 34.46484375 -11 32.1875 C-10.2265625 32.02894531 -9.453125 31.87039063 -8.65625 31.70703125 C0.93776065 29.57018352 0.93776065 29.57018352 9 24.1875 C9.74404769 22.10635149 9.74404769 22.10635149 10 20.1875 C8.205625 19.8471875 8.205625 19.8471875 6.375 19.5 C-0.2887476 18.03930653 -6.62042213 15.56509517 -13 13.1875 C-13 12.5275 -13 11.8675 -13 11.1875 C-14.32 10.5275 -15.64 9.8675 -17 9.1875 C-16.8125 6.875 -16.8125 6.875 -16 4.1875 C-10.89342057 0.32306151 -6.26699637 0.03319384 0 0 Z " fill="#040404" transform="translate(422,488.8125)"/>
<path d="M0 0 C0.13051758 0.56396484 0.26103516 1.12792969 0.39550781 1.70898438 C1.00334515 4.30852691 1.62656019 6.90415706 2.25 9.5 C2.45496094 10.386875 2.65992188 11.27375 2.87109375 12.1875 C4.09773749 17.24275906 5.58916671 21.67602029 8.12402344 26.22851562 C9.06322054 28.12785067 9.55559925 29.93370699 10 32 C8.48986328 32.34611328 8.48986328 32.34611328 6.94921875 32.69921875 C-0.92777772 34.52121878 -8.75819141 36.44989925 -16.5625 38.5625 C-23.6003982 40.46050461 -30.60658401 41.96075552 -37.80078125 43.12890625 C-49.36500487 45.32584262 -60.33075992 49.47870757 -71.25 53.75 C-73.20296276 54.51026222 -75.15657966 55.2687007 -77.11175537 56.02325439 C-78.85375213 56.69599808 -80.59345352 57.3746766 -82.33300781 58.05371094 C-85 59 -85 59 -87 59 C-86.28446718 52.27979314 -84.43432918 45.9350807 -82.625 39.4375 C-80.12753911 30.3362923 -77.77058921 21.27451489 -76 12 C-74.989375 12.28875 -73.97875 12.5775 -72.9375 12.875 C-72.298125 13.05546875 -71.65875 13.2359375 -71 13.421875 C-69.13713616 13.96035908 -67.28662115 14.541067 -65.4375 15.125 C-60.04142157 16.49854724 -56.62631506 16.37190282 -51.52734375 14.2265625 C-15.34954215 -0.55986172 -15.34954215 -0.55986172 0 0 Z " fill="#050505" transform="translate(611,502)"/>
<path d="M0 0 C0.0878954 3.35399849 0.14068879 6.7076964 0.1875 10.0625 C0.21263672 11.00544922 0.23777344 11.94839844 0.26367188 12.91992188 C0.3246595 18.75440469 -0.16164716 22.86195982 -3 28 C-5.20937009 29.6938504 -6.78252404 29.95650481 -9.5 30.5 C-12 30 -12 30 -14.125 27.5 C-18.86669213 18.64884136 -19.62795913 10.85266845 -20 1 C-13.28575021 0.11944265 -6.76646825 -0.09200658 0 0 Z " fill="#090909" transform="translate(640,498)"/>
<path d="M0 0 C0.99 0 1.98 0 3 0 C2.75 1.875 2.75 1.875 2 4 C-0.0625 5.25 -0.0625 5.25 -2 6 C-2 6.66 -2 7.32 -2 8 C-3.98 8.99 -3.98 8.99 -6 10 C-4.63356852 6.01457486 -2.89890986 3.07460137 0 0 Z " fill="#252525" transform="translate(539,594)"/>
<path d="M0 0 C0.66 0.33 1.32 0.66 2 1 C1.113125 1.556875 0.22625 2.11375 -0.6875 2.6875 C-3.84279378 4.77853792 -6.39868111 7.24566235 -9 10 C-9.66 9.67 -10.32 9.34 -11 9 C-9.625 7 -9.625 7 -8 5 C-7.34 5 -6.68 5 -6 5 C-6 4.34 -6 3.68 -6 3 C-4.03533587 1.93224776 -2.03144641 0.93446535 0 0 Z " fill="#464646" transform="translate(559,575)"/>
<path d="M0 0 C0.66 0.33 1.32 0.66 2 1 C0.625 2.5 0.625 2.5 -1 4 C-1.66 4 -2.32 4 -3 4 C-3 4.66 -3 5.32 -3 6 C-5.97 5.505 -5.97 5.505 -9 5 C-6.32239719 2.32239719 -3.52050129 1.32018799 0 0 Z " fill="#303030" transform="translate(612,555)"/>
<path d="M0 0 C1.74565111 3.21639654 2.204437 5.32013404 2 9 C1.34 8.34 0.68 7.68 0 7 C-0.66 8.32 -1.32 9.64 -2 11 C-3 9 -3 9 -2.44140625 6.8359375 C-2.15136719 6.02382813 -1.86132812 5.21171875 -1.5625 4.375 C-1.27503906 3.55773437 -0.98757813 2.74046875 -0.69140625 1.8984375 C-0.46324219 1.27195312 -0.23507812 0.64546875 0 0 Z " fill="#3A3A3A" transform="translate(646,524)"/>
<path d="M0 0 C3 1 3 1 5 3 C2.36 3.66 -0.28 4.32 -3 5 C-2.67 3.68 -2.34 2.36 -2 1 C-1.34 0.67 -0.68 0.34 0 0 Z " fill="#181818" transform="translate(462,227)"/>
<path d="M0 0 C2.31 0 4.62 0 7 0 C7 0.99 7 1.98 7 3 C4.36 3 1.72 3 -1 3 C-0.67 2.01 -0.34 1.02 0 0 Z " fill="#080808" transform="translate(490,732)"/>
<path d="M0 0 C0.66 0.99 1.32 1.98 2 3 C1.21625 3.763125 0.4325 4.52625 -0.375 5.3125 C-3.07257717 7.90891805 -3.07257717 7.90891805 -5 11 C-4.125 6.25 -4.125 6.25 -3 4 C-2.34 4 -1.68 4 -1 4 C-0.67 2.68 -0.34 1.36 0 0 Z " fill="#404040" transform="translate(786,428)"/>
<path d="M0 0 C0.99 0.33 1.98 0.66 3 1 C2.67 3.31 2.34 5.62 2 8 C1.67 7.01 1.34 6.02 1 5 C0.34 5 -0.32 5 -1 5 C-0.67 3.35 -0.34 1.7 0 0 Z " fill="#191919" transform="translate(124,530)"/>
</svg>
